<?xml version="1.0" encoding="UTF-8"?>
<svg id="Layer_2" data-name="Layer 2" xmlns="http://www.w3.org/2000/svg" viewBox="0 0 617.05 536">
  <defs>
    <style>
      .cls-1 {
        letter-spacing: 0em;
      }

      .cls-2, .cls-3, .cls-4 {
        fill: #eeb319;
      }

      .cls-3 {
        font-size: 142px;
        letter-spacing: -.03em;
      }

      .cls-3, .cls-4 {
        font-family: Phosphate-Solid, Phosphate;
      }

      .cls-5 {
        letter-spacing: 0em;
      }

      .cls-6 {
        letter-spacing: 0em;
      }

      .cls-4 {
        font-size: 176px;
      }
    </style>
  </defs>
  <g id="Layer_2-2" data-name="Layer 2">
    <g>
      <path class="cls-2" d="M433.86,70.5c-6.45-11.61-14.64-22.32-24.41-31.81C383.75,13.74,349.86,0,314.03,0s-69.72,13.74-95.42,38.69c-9.77,9.49-17.96,20.2-24.41,31.81H75.53v82h16.5V86.98h94.41c-5.65,14.39-8.84,29.78-9.34,45.64l-.39,12.38H451.35l-.39-12.38c-.5-15.86-3.69-31.25-9.34-45.64h88.91v65.52h16.5V70.5h-113.17Zm5.11,62.5H189.09c.52-16.33,4.16-31.86,10.35-46.02,2.5-5.73,5.42-11.24,8.73-16.48,22.12-35.15,61.26-58.5,105.86-58.5s83.74,23.35,105.86,58.5c3.31,5.24,6.23,10.75,8.73,16.48,6.19,14.16,9.83,29.69,10.35,46.02Z"/>
      <path class="cls-2" d="M429.43,124H196.63c6.02-58.98,55.83-105,116.4-105s110.38,46.02,116.4,105Z"/>
      <polygon class="cls-2" points="399.03 520 530.03 520 530.03 455 547.03 455 547.03 536 399.03 536 399.03 520"/>
      <polygon class="cls-2" points="223.03 520 92.03 520 92.03 455 75.03 455 75.03 536 223.03 536 223.03 520"/>
      <rect class="cls-2" x="241.03" y="520" width="140" height="16"/>
      <rect class="cls-2" x="263.03" y="486" width="96" height="16"/>
      <rect class="cls-2" x="281.03" y="452" width="60" height="16"/>
      <text class="cls-4" transform="translate(0 305.98)"><tspan class="cls-5" x="0" y="0">BU</tspan><tspan class="cls-1" x="206.97" y="0">R</tspan><tspan class="cls-6" x="308.52" y="0">GER</tspan></text>
      <text class="cls-3" transform="translate(29.15 417.95)"><tspan x="0" y="0">MANSION</tspan></text>
    </g>
  </g>
</svg>