<?xml version="1.0" encoding="UTF-8"?>
<svg id="Layer_2" data-name="Layer 2" xmlns="http://www.w3.org/2000/svg" viewBox="0 0 610.89 536">
  <defs>
    <style>
      .cls-1 {
        fill: #eeb319;
      }
    </style>
  </defs>
  <g id="Layer_2-2" data-name="Layer 2">
    <g>
      <path class="cls-1" d="M427.7,70.5c-6.45-11.61-14.64-22.32-24.41-31.81C377.59,13.74,343.7,0,307.87,0s-69.72,13.74-95.42,38.69c-9.77,9.49-17.96,20.2-24.41,31.81H69.37v82h16.5V86.98h94.41c-5.65,14.39-8.84,29.78-9.34,45.64l-.39,12.38H445.19l-.39-12.38c-.5-15.86-3.69-31.25-9.34-45.64h88.91v65.52h16.5V70.5h-113.17Zm5.11,62.5H182.93c.52-16.33,4.16-31.86,10.35-46.02,2.5-5.73,5.42-11.24,8.73-16.48,22.12-35.15,61.26-58.5,105.86-58.5s83.74,23.35,105.86,58.5c3.31,5.24,6.23,10.75,8.73,16.48,6.19,14.16,9.83,29.69,10.35,46.02Z"/>
      <path class="cls-1" d="M423.27,124H190.47c6.02-58.98,55.83-105,116.4-105s110.38,46.02,116.4,105Z"/>
      <polygon class="cls-1" points="392.87 520 523.87 520 523.87 455 540.87 455 540.87 536 392.87 536 392.87 520"/>
      <polygon class="cls-1" points="216.87 520 85.87 520 85.87 455 68.87 455 68.87 536 216.87 536 216.87 520"/>
      <rect class="cls-1" x="234.87" y="520" width="140" height="16"/>
      <rect class="cls-1" x="256.87" y="486" width="96" height="16"/>
      <rect class="cls-1" x="274.87" y="452" width="60" height="16"/>
      <g>
        <path class="cls-1" d="M0,188.59H45.94c5.87,0,11.23,.68,16.1,2.02,4.87,1.35,9.03,3.34,12.5,5.98,3.46,2.64,6.16,5.93,8.1,9.86,1.94,3.93,2.9,8.54,2.9,13.82,0,3.76-.47,6.95-1.41,9.59-.94,2.64-1.94,4.84-2.99,6.6-1.29,2.11-2.76,3.87-4.4,5.28,2.58,1.64,4.93,3.76,7.04,6.34,1.76,2.23,3.37,5.05,4.84,8.45,1.47,3.4,2.2,7.57,2.2,12.5,0,5.63-1,10.74-2.99,15.31-2,4.58-4.84,8.48-8.54,11.7-3.7,3.23-8.21,5.69-13.55,7.39-5.34,1.7-11.29,2.55-17.86,2.55H0v-117.39Zm49.28,35.73c0-5.4-2.93-8.1-8.8-8.1h-4.22v16.19h4.22c5.87,0,8.8-2.7,8.8-8.1Zm-8.8,54.03c8.92,0,13.38-3.4,13.38-10.21s-4.46-10.21-13.38-10.21h-4.22v20.42h4.22Z"/>
        <path class="cls-1" d="M146.61,308.97c-7.39,0-14.08-.94-20.06-2.82s-11.09-4.69-15.31-8.45c-4.22-3.75-7.48-8.51-9.77-14.26-2.29-5.75-3.43-12.5-3.43-20.24v-74.62h37.49v73.04c0,4.11,.85,7.25,2.55,9.42,1.7,2.17,4.55,3.26,8.54,3.26s6.83-1.08,8.54-3.26c1.7-2.17,2.55-5.31,2.55-9.42v-73.04h37.66v74.62c0,7.74-1.14,14.49-3.43,20.24-2.29,5.75-5.57,10.5-9.86,14.26-4.28,3.76-9.42,6.57-15.4,8.45s-12.67,2.82-20.06,2.82Z"/>
        <path class="cls-1" d="M206.97,188.59h40.48c7.51,0,14.46,1,20.86,2.99,6.39,2,11.94,4.93,16.63,8.8,4.69,3.87,8.36,8.65,11,14.34,2.64,5.69,3.96,12.23,3.96,19.62,0,5.87-.82,10.85-2.46,14.96-1.64,4.11-3.46,7.51-5.46,10.21-2.35,3.05-4.99,5.63-7.92,7.74l22,38.72h-44l-17.6-29.74v29.74h-37.49v-117.39Zm37.49,57.73h1.94c4.46,0,8.24-1,11.35-2.99,3.11-1.99,4.66-5.34,4.66-10.03s-1.56-8.04-4.66-10.03c-3.11-1.99-6.89-2.99-11.35-2.99h-1.94v26.05Z"/>
        <path class="cls-1" d="M383.32,228.54c-2.11-1.88-4.75-3.31-7.92-4.31-3.17-1-6.28-1.5-9.33-1.5-3.4,0-6.51,.62-9.33,1.85-2.82,1.23-5.25,2.93-7.3,5.1-2.05,2.17-3.67,4.78-4.84,7.83-1.17,3.05-1.76,6.34-1.76,9.86s.64,6.81,1.94,9.86c1.29,3.05,3.05,5.66,5.28,7.83,2.23,2.17,4.84,3.87,7.83,5.1,2.99,1.23,6.19,1.85,9.59,1.85,3.99,0,7.63-.85,10.91-2.55,3.28-1.7,6.1-4.02,8.45-6.95h-10.56v-24.64h45.23v39.07c-2.7,4.81-5.93,9.18-9.68,13.11-3.76,3.93-7.95,7.3-12.58,10.12-4.64,2.82-9.65,4.99-15.05,6.51-5.4,1.52-10.97,2.29-16.72,2.29-8.45,0-16.43-1.58-23.94-4.75-7.51-3.17-14.05-7.51-19.62-13.02-5.57-5.51-9.97-12.03-13.2-19.54-3.23-7.51-4.84-15.6-4.84-24.29s1.52-16.43,4.58-23.94c3.05-7.51,7.24-14.05,12.58-19.62,5.34-5.57,11.67-9.97,19.01-13.2,7.33-3.23,15.22-4.84,23.67-4.84,6.57,0,12.26,.65,17.07,1.94,4.81,1.29,8.86,2.76,12.14,4.4,3.87,1.88,7.1,3.93,9.68,6.16l-21.3,30.27Z"/>
        <path class="cls-1" d="M431.02,188.59h69.17v30.8h-31.68v13.02h31.15v29.22h-31.15v13.55h32.91v30.8h-70.4v-117.39Z"/>
        <path class="cls-1" d="M511.8,188.59h40.48c7.51,0,14.46,1,20.86,2.99,6.39,2,11.94,4.93,16.63,8.8,4.69,3.87,8.36,8.65,11,14.34,2.64,5.69,3.96,12.23,3.96,19.62,0,5.87-.82,10.85-2.46,14.96-1.64,4.11-3.46,7.51-5.46,10.21-2.35,3.05-4.99,5.63-7.92,7.74l22,38.72h-44l-17.6-29.74v29.74h-37.49v-117.39Zm37.49,57.73h1.94c4.46,0,8.24-1,11.35-2.99,3.11-1.99,4.66-5.34,4.66-10.03s-1.56-8.04-4.66-10.03c-3.11-1.99-6.89-2.99-11.35-2.99h-1.94v26.05Z"/>
      </g>
      <g>
        <path class="cls-1" d="M27.96,323.24h24.99l24.71,36.35,24.57-36.35h24.99v94.71h-30.25v-34.08l-19.31,28.4-19.45-28.4v34.08H27.96v-94.71Z"/>
        <path class="cls-1" d="M161.44,323.24h22.72l35.93,94.71h-29.82l-3.12-8.52h-28.68l-3.12,8.52h-29.82l35.93-94.71Zm17.75,65.32l-6.39-16.61-6.39,16.61h12.78Z"/>
        <path class="cls-1" d="M218.38,323.24h24.85l26.13,36.49v-36.49h29.68v94.71h-24.99l-25.99-36.35v36.35h-29.68v-94.71Z"/>
        <path class="cls-1" d="M302.59,388.56c2.08,.66,4.26,1.18,6.53,1.56,1.89,.47,4.05,.85,6.46,1.14s4.85,.43,7.31,.43c4.35,0,6.53-1.61,6.53-4.83,0-1.23-.66-2.49-1.99-3.76-1.33-1.28-3.01-2.7-5.04-4.26-2.04-1.56-4.21-3.29-6.53-5.18-2.32-1.89-4.5-4.07-6.53-6.53-2.04-2.46-3.72-5.23-5.04-8.31-1.33-3.08-1.99-6.6-1.99-10.58,0-4.45,.8-8.38,2.41-11.79,1.61-3.41,3.83-6.25,6.67-8.52,2.84-2.27,6.18-4,10.01-5.18,3.83-1.18,7.93-1.77,12.28-1.77,2.27,0,4.54,.12,6.82,.35,2.27,.24,4.31,.45,6.11,.64,2.08,.28,4.12,.57,6.11,.85v26.55c-.76-.09-1.61-.19-2.56-.28-.76-.09-1.61-.19-2.56-.28-.95-.09-1.94-.14-2.98-.14-.57,0-1.28,.02-2.13,.07-.85,.05-1.66,.17-2.41,.35-.76,.19-1.42,.52-1.99,.99-.57,.47-.85,1.14-.85,1.99,0,.76,.64,1.7,1.92,2.84,1.28,1.14,2.84,2.46,4.69,3.98,1.85,1.52,3.88,3.27,6.11,5.25,2.22,1.99,4.26,4.26,6.11,6.82s3.41,5.44,4.69,8.66c1.28,3.22,1.92,6.82,1.92,10.79s-.66,8.07-1.99,11.71c-1.33,3.65-3.39,6.82-6.18,9.51-2.79,2.7-6.37,4.83-10.72,6.39-4.36,1.56-9.51,2.34-15.48,2.34-3.6,0-6.94-.17-10.01-.5-3.08-.33-5.8-.73-8.17-1.21-2.75-.47-5.25-1.04-7.53-1.7v-28.4Z"/>
        <path class="cls-1" d="M365.21,323.24h32.09v94.71h-32.09v-94.71Z"/>
        <path class="cls-1" d="M401.28,370.67c0-6.82,1.3-13.25,3.91-19.31,2.6-6.06,6.15-11.34,10.65-15.83,4.5-4.5,9.77-8.04,15.83-10.65,6.06-2.6,12.5-3.9,19.31-3.9s13.25,1.3,19.31,3.9c6.06,2.6,11.34,6.15,15.83,10.65,4.5,4.5,8.05,9.78,10.65,15.83,2.6,6.06,3.91,12.5,3.91,19.31s-1.3,13.25-3.91,19.31c-2.6,6.06-6.15,11.34-10.65,15.83-4.5,4.5-9.78,8.05-15.83,10.65-6.06,2.6-12.5,3.91-19.31,3.91s-13.25-1.3-19.31-3.91c-6.06-2.6-11.34-6.15-15.83-10.65-4.5-4.5-8.05-9.77-10.65-15.83-2.6-6.06-3.91-12.5-3.91-19.31Zm29.82,0c0,2.75,.52,5.33,1.56,7.74,1.04,2.41,2.46,4.52,4.26,6.32,1.8,1.8,3.9,3.22,6.32,4.26,2.41,1.04,4.99,1.56,7.74,1.56s5.33-.52,7.74-1.56c2.41-1.04,4.52-2.46,6.32-4.26s3.22-3.91,4.26-6.32c1.04-2.41,1.56-4.99,1.56-7.74s-.52-5.33-1.56-7.74c-1.04-2.41-2.46-4.52-4.26-6.32-1.8-1.8-3.9-3.22-6.32-4.26-2.41-1.04-5-1.56-7.74-1.56s-5.33,.52-7.74,1.56c-2.41,1.04-4.52,2.46-6.32,4.26-1.8,1.8-3.22,3.9-4.26,6.32-1.04,2.41-1.56,5-1.56,7.74Z"/>
        <path class="cls-1" d="M504.65,323.24h24.85l26.13,36.49v-36.49h29.68v94.71h-24.99l-25.99-36.35v36.35h-29.68v-94.71Z"/>
      </g>
    </g>
  </g>
</svg>