<?xml version="1.0" encoding="UTF-8"?>
<svg id="Layer_2" data-name="Layer 2" xmlns="http://www.w3.org/2000/svg" viewBox="0 0 226.31 42.91">
  <defs>
    <style>
      .cls-1 {
        fill: #fdf4ef;
      }
    </style>
  </defs>
  <g id="Layer_1-2" data-name="Layer 1">
    <path class="cls-1" d="M134.21,42.76h9.58V16s-.66-7.27,5.28-7.27h12.55s6.61-.99,6.61,7.93v26.09h8.59V15.01s.66-11.89-11.89-14.86h-16.84s-13.21,0-13.87,16.18,0,26.42,0,26.42Z"/>
    <path class="cls-1" d="M226.02,.15h-9.58V26.9s.66,7.27-5.28,7.27h-12.55s-6.61,.99-6.61-7.93V.15h-8.59V27.89s-.66,11.89,11.89,14.86h16.84s13.21,0,13.87-16.18,0-26.42,0-26.42Z"/>
    <path class="cls-1" d="M66.27,.15h-16.84s-5.91,0-10.03,4.86c-1.77-2.07-4.41-3.91-8.39-4.86H14.17S.95,.15,.29,16.33C-.37,32.52,.29,42.76,.29,42.76H9.87V16s-.66-7.27,5.28-7.27h12.55s6.61-.99,6.61,7.93v26.09h10.82V16s-.66-7.27,5.28-7.27h12.55s6.61-.99,6.61,7.93v26.09h8.59V15.01s.66-11.89-11.89-14.86Z"/>
    <g>
      <path class="cls-1" d="M99.6,0s-11.89-.66-14.86,11.89V28.74s0,13.21,16.18,13.87c16.18,.66,26.42,0,26.42,0v-9.58h-26.75s-7.27,.66-7.27-5.28V15.2s-.99-6.61,7.93-6.61h26.09V0h-27.74Z"/>
      <polygon class="cls-1" points="101.41 25.88 127.35 25.88 127.35 16.97 110 16.97 101.41 25.88"/>
    </g>
  </g>
</svg>