<?xml version="1.0" encoding="UTF-8"?><svg id="Layer_2" xmlns="http://www.w3.org/2000/svg" viewBox="0 0 38.56 38.61"><defs><style>.cls-1{fill:#1ddb2c;}</style></defs><g id="Layer_1-2"><path class="cls-1" d="M8.78,3c.14,0,.28,0,.43,.01,2.18,.09,4.08,1.38,4.84,3.28,1.47,3.68-.5,6.79-3.11,7.85-.82,.33-1.45,1.01-1.73,1.85-.28,.84-.16,1.76,.3,2.51,2.64,4.26,6.3,7.92,10.56,10.58,.48,.3,1.03,.45,1.59,.45,.31,0,.62-.05,.93-.15,.84-.27,1.52-.91,1.85-1.73,.88-2.19,2.98-3.6,5.35-3.6,.3,0,.61,.02,.91,.07,2.9,.44,5.2,3.49,4.82,6.4l2.97,.39-2.98-.32c-.38,2.86-2.84,5.01-5.73,5.01C15.02,35.61,3,23.6,3,8.83v-.06c0-2.88,2.16-5.34,5.01-5.71,.03,0,.05,0,.08-.01,.2-.03,.42-.05,.69-.05m0-3c-.4,0-.78,.02-1.16,.08C3.32,.64,.02,4.31,0,8.75v.07c0,16.45,13.34,29.79,29.79,29.79,4.45,0,8.13-3.32,8.7-7.62v-.08c.59-4.52-2.83-9.08-7.34-9.75-.46-.07-.91-.1-1.36-.1-3.67,0-6.83,2.26-8.13,5.47-3.89-2.43-7.18-5.73-9.6-9.62,4.23-1.71,6.82-6.62,4.77-11.74C15.61,2.12,12.62,.15,9.33,.01c-.19,0-.38-.01-.56-.01h0Z"/></g></svg>